<svg xmlns="http://www.w3.org/2000/svg" version="1.1" xmlns:xlink="http://www.w3.org/1999/xlink" xmlns:svgjs="http://svgjs.dev/svgjs" width="1000" height="623" viewBox="0 0 1000 623">
    <g transform="matrix(1,0,0,1,-0.6060606060606233,0.2522267206477409)">
        <svg viewBox="0 0 396 247" data-background-color="#ffffff" preserveAspectRatio="xMidYMid meet" height="623" width="1000" xmlns="http://www.w3.org/2000/svg" xmlns:xlink="http://www.w3.org/1999/xlink">
            <g id="tight-bounds" transform="matrix(1,0,0,1,0.2400000000000091,-0.09999999999999432)">
                <svg viewBox="0 0 395.52 247.2" height="247.2" width="395.52">
                    <g>
                        <svg>
                        </svg>
                    </g>
                    <g>
                        <svg viewBox="0 0 395.52 247.2" height="247.2" width="395.52">
                            <g transform="matrix(1,0,0,1,75.54432,97.29083174862801)">
                                <svg viewBox="0 0 244.43135999999998 52.61833650274398" height="52.61833650274398" width="244.43135999999998">
                                    <g>
                                        <svg viewBox="0 0 244.43135999999998 52.61833650274398" height="52.61833650274398" width="244.43135999999998">
                                            <g>
                                                <svg viewBox="0 0 244.43135999999998 52.61833650274398" height="52.61833650274398" width="244.43135999999998">
                                                    <g>
                                                        <svg viewBox="0 0 244.43135999999998 52.61833650274398" height="52.61833650274398" width="244.43135999999998">
                                                            <g id="textblocktransform">
                                                                <svg viewBox="0 0 244.43135999999998 52.61833650274398" height="52.61833650274398" width="244.43135999999998" id="textblock">
                                                                    <g>
                                                                        <svg viewBox="0 0 244.43135999999998 28.37981641677255" height="28.37981641677255" width="244.43135999999998">
                                                                            <g transform="matrix(1,0,0,1,0,0)">
                                                                                <svg width="244.43135999999998" viewBox="3.5 -35.9 311.63 36.55" height="28.37981641677255" data-palette-color="#755bb4">
                                                                                    <g class="undefined-text-0" data-fill-palette-color="primary" id="text-0">
                                                                                        <path d="M31.9-34.5L37.3-34.5Q39.25-34.5 39.3-32.45L39.3-32.45 40.7 0 35.8 0 34.55-30.45 33.55-30.45 26.25-5.7Q25.85-4.05 24.15-4.05L24.15-4.05 20.05-4.05Q18.3-4.05 17.85-5.7L17.85-5.7 10.55-30.45 9.55-30.45 8.4 0 3.5 0 4.85-32.45Q4.95-34.5 6.85-34.5L6.85-34.5 12.25-34.5Q13.85-34.5 14.35-32.85L14.35-32.85 20.4-12.45Q20.8-11.3 21.05-10.15 21.3-9 21.65-7.75L21.65-7.75 22.5-7.75Q22.85-9 23.13-10.15 23.4-11.3 23.75-12.55L23.75-12.55 29.8-32.85Q30.2-34.5 31.9-34.5L31.9-34.5ZM58.5-25L58.5-25Q62.8-25 65.37-23.75 67.95-22.5 69.07-19.68 70.2-16.85 70.2-12.2L70.2-12.2Q70.2-7.5 69.07-4.67 67.95-1.85 65.37-0.6 62.8 0.65 58.5 0.65L58.5 0.65Q54.25 0.65 51.67-0.6 49.1-1.85 47.95-4.67 46.8-7.5 46.8-12.2L46.8-12.2Q46.8-16.85 47.95-19.68 49.1-22.5 51.67-23.75 54.25-25 58.5-25ZM58.5-21.1L58.5-21.1Q56-21.1 54.55-20.3 53.1-19.5 52.5-17.57 51.9-15.65 51.9-12.2L51.9-12.2Q51.9-8.75 52.5-6.8 53.1-4.85 54.55-4.08 56-3.3 58.5-3.3L58.5-3.3Q61-3.3 62.47-4.08 63.95-4.85 64.55-6.8 65.15-8.75 65.15-12.2L65.15-12.2Q65.15-15.65 64.55-17.57 63.95-19.5 62.47-20.3 61-21.1 58.5-21.1ZM84.9-25L84.9-25Q86.5-25 88.35-24.9 90.2-24.8 92.02-24.65 93.85-24.5 95.35-24.25L95.35-24.25 95-20.85Q92.65-20.95 90.32-21.03 88-21.1 85.7-21.1L85.7-21.1Q83.5-21.15 82.25-21 81-20.85 80.45-20.25 79.9-19.65 79.9-18.2L79.9-18.2Q79.9-16.45 80.77-15.9 81.65-15.35 83.4-14.95L83.4-14.95 90.35-13.35Q93.3-12.6 94.7-11.15 96.1-9.7 96.1-6.55L96.1-6.55Q96.1-3.55 94.97-2.02 93.85-0.5 91.5 0.03 89.15 0.55 85.55 0.55L85.55 0.55Q84.2 0.55 81.52 0.45 78.85 0.35 75.65-0.2L75.65-0.2 76-3.55Q77.15-3.5 78.5-3.45 79.85-3.4 81.37-3.4 82.9-3.4 84.45-3.4L84.45-3.4Q87.15-3.4 88.67-3.63 90.2-3.85 90.82-4.53 91.45-5.2 91.45-6.55L91.45-6.55Q91.45-8.2 90.42-8.78 89.4-9.35 87.65-9.75L87.65-9.75 80.8-11.35Q78.7-11.85 77.47-12.73 76.25-13.6 75.72-14.93 75.2-16.25 75.2-18.25L75.2-18.25Q75.2-21.05 76.2-22.53 77.2-24 79.32-24.53 81.45-25.05 84.9-25ZM104.04-31.55L108.89-31.55 108.89-6.95Q108.89-5.25 109.62-4.53 110.34-3.8 112.09-3.8L112.09-3.8 115.69-3.8 116.24-0.25Q115.39 0 114.32 0.15 113.24 0.3 112.17 0.38 111.09 0.45 110.44 0.45L110.44 0.45Q107.34 0.45 105.69-1.25 104.04-2.95 104.04-6.15L104.04-6.15 104.04-31.55ZM104.44-24.4L116.49-24.4 116.49-20.8 99.64-20.8 99.64-24.15 104.44-24.4ZM133.19-25L133.19-25Q135.99-25 137.92-24.28 139.84-23.55 140.81-21.8 141.79-20.05 141.79-17L141.79-17 141.79 0 137.99 0 137.24-5.3 136.94-5.9 136.94-17Q136.94-19.15 135.94-20.1 134.94-21.05 132.14-21.05L132.14-21.05Q130.24-21.05 127.37-20.85 124.49-20.65 121.69-20.45L121.69-20.45 121.24-23.9Q122.94-24.2 125.02-24.45 127.09-24.7 129.24-24.85 131.39-25 133.19-25ZM126.99-15.05L139.59-15.05 139.54-11.65 128.04-11.6Q126.34-11.55 125.67-10.73 124.99-9.9 124.99-8.45L124.99-8.45 124.99-6.95Q124.99-5.15 125.87-4.33 126.74-3.5 128.64-3.5L128.64-3.5Q130.04-3.5 131.77-4.03 133.49-4.55 135.24-5.63 136.99-6.7 138.39-8.35L138.39-8.35 138.39-5.2Q137.89-4.5 136.89-3.53 135.89-2.55 134.47-1.65 133.04-0.75 131.31-0.15 129.59 0.45 127.54 0.45L127.54 0.45Q125.34 0.45 123.67-0.33 121.99-1.1 121.04-2.63 120.09-4.15 120.09-6.35L120.09-6.35 120.09-9Q120.09-11.85 121.92-13.45 123.74-15.05 126.99-15.05L126.99-15.05ZM158.34-35.9L158.34-35.9Q159.14-35.9 160.44-35.85 161.74-35.8 163.06-35.73 164.39-35.65 165.39-35.5L165.39-35.5 164.99-32.05 160.04-32.05Q157.74-32.05 156.81-31.15 155.89-30.25 155.89-28.1L155.89-28.1 155.89 0 151.04 0 151.04-28.65Q151.04-30.95 151.74-32.55 152.44-34.15 154.04-35.02 155.64-35.9 158.34-35.9ZM151.24-24.4L163.49-24.4 163.49-20.8 146.64-20.8 146.64-24.15 151.24-24.4ZM180.04-25L180.04-25Q182.84-25 184.76-24.28 186.69-23.55 187.66-21.8 188.64-20.05 188.64-17L188.64-17 188.64 0 184.84 0 184.09-5.3 183.79-5.9 183.79-17Q183.79-19.15 182.79-20.1 181.79-21.05 178.99-21.05L178.99-21.05Q177.09-21.05 174.21-20.85 171.34-20.65 168.54-20.45L168.54-20.45 168.09-23.9Q169.79-24.2 171.86-24.45 173.94-24.7 176.09-24.85 178.24-25 180.04-25ZM173.84-15.05L186.44-15.05 186.39-11.65 174.89-11.6Q173.19-11.55 172.51-10.73 171.84-9.9 171.84-8.45L171.84-8.45 171.84-6.95Q171.84-5.15 172.71-4.33 173.59-3.5 175.49-3.5L175.49-3.5Q176.89-3.5 178.61-4.03 180.34-4.55 182.09-5.63 183.84-6.7 185.24-8.35L185.24-8.35 185.24-5.2Q184.74-4.5 183.74-3.53 182.74-2.55 181.31-1.65 179.89-0.75 178.16-0.15 176.44 0.45 174.39 0.45L174.39 0.45Q172.19 0.45 170.51-0.33 168.84-1.1 167.89-2.63 166.94-4.15 166.94-6.35L166.94-6.35 166.94-9Q166.94-11.85 168.76-13.45 170.59-15.05 173.84-15.05L173.84-15.05Z" fill="#755bb4" data-fill-palette-color="primary">
                                                                                        </path>
                                                                                        <path d="M207.64-25L207.64-25Q214.29-25 214.29-18.3L214.29-18.3 214.29 0 209.39 0 209.39-16.9Q209.39-19.2 208.67-20.08 207.94-20.95 206.14-20.95L206.14-20.95Q203.99-20.95 201.84-19.98 199.69-19 196.69-17.1L196.69-17.1 196.44-20.3Q199.24-22.5 202.07-23.75 204.89-25 207.64-25ZM192.39-35L197.19-35 197.24-25.55Q197.24-23.85 197.11-22.35 196.99-20.85 196.69-19.7L196.69-19.7 197.19-19 197.19 0 192.39 0 192.39-35ZM233.39-25L233.39-25Q236.19-25 238.11-24.28 240.04-23.55 241.01-21.8 241.99-20.05 241.99-17L241.99-17 241.99 0 238.19 0 237.44-5.3 237.14-5.9 237.14-17Q237.14-19.15 236.14-20.1 235.14-21.05 232.34-21.05L232.34-21.05Q230.44-21.05 227.56-20.85 224.69-20.65 221.89-20.45L221.89-20.45 221.44-23.9Q223.14-24.2 225.21-24.45 227.29-24.7 229.44-24.85 231.59-25 233.39-25ZM227.19-15.05L239.79-15.05 239.74-11.65 228.24-11.6Q226.54-11.55 225.86-10.73 225.19-9.9 225.19-8.45L225.19-8.45 225.19-6.95Q225.19-5.15 226.06-4.33 226.94-3.5 228.84-3.5L228.84-3.5Q230.24-3.5 231.96-4.03 233.69-4.55 235.44-5.63 237.19-6.7 238.59-8.35L238.59-8.35 238.59-5.2Q238.09-4.5 237.09-3.53 236.09-2.55 234.66-1.65 233.24-0.75 231.51-0.15 229.79 0.45 227.74 0.45L227.74 0.45Q225.54 0.45 223.86-0.33 222.19-1.1 221.24-2.63 220.29-4.15 220.29-6.35L220.29-6.35 220.29-9Q220.29-11.85 222.11-13.45 223.94-15.05 227.19-15.05L227.19-15.05ZM258.54-35.9L258.54-35.9Q259.34-35.9 260.64-35.85 261.94-35.8 263.26-35.73 264.59-35.65 265.59-35.5L265.59-35.5 265.19-32.05 260.23-32.05Q257.94-32.05 257.01-31.15 256.09-30.25 256.09-28.1L256.09-28.1 256.09 0 251.24 0 251.24-28.65Q251.24-30.95 251.94-32.55 252.64-34.15 254.23-35.02 255.84-35.9 258.54-35.9ZM251.44-24.4L263.69-24.4 263.69-20.8 246.84-20.8 246.84-24.15 251.44-24.4ZM278.78-25L278.78-25Q284.43-25 286.96-22.98 289.48-20.95 289.48-17L289.48-17Q289.53-13.7 288.06-11.9 286.58-10.1 283.28-10.1L283.28-10.1 269.18-10.1 269.18-13.55 282.03-13.55Q283.68-13.55 284.18-14.6 284.68-15.65 284.68-17L284.68-17Q284.63-19.25 283.36-20.2 282.08-21.15 278.98-21.15L278.98-21.15Q276.43-21.15 274.98-20.4 273.53-19.65 272.96-17.8 272.38-15.95 272.38-12.6L272.38-12.6Q272.38-8.85 273.11-6.88 273.83-4.9 275.46-4.15 277.08-3.4 279.78-3.4L279.78-3.4Q281.68-3.4 284.06-3.58 286.43-3.75 288.38-4L288.38-4 288.88-0.85Q287.68-0.35 285.98-0.03 284.28 0.3 282.48 0.45 280.68 0.6 279.18 0.6L279.18 0.6Q274.88 0.6 272.28-0.7 269.68-2 268.48-4.83 267.28-7.65 267.28-12.25L267.28-12.25Q267.28-17.05 268.48-19.85 269.68-22.65 272.23-23.83 274.78-25 278.78-25ZM294.18-3.75L309.53-20.65 314.98-20.6 299.63-3.7 294.18-3.75ZM294.18-3.75L315.13-3.75 315.13 0 294.18 0 294.18-3.75ZM294.33-24.4L314.98-24.4 314.98-20.6 294.33-20.6 294.33-24.4Z" fill="#755bb4" data-fill-palette-color="primary">
                                                                                        </path>
                                                                                    </g>
                                                                                </svg>
                                                                            </g>
                                                                        </svg>
                                                                    </g>
                                                                    <g transform="matrix(1,0,0,1,0,35.07960995717855)">
                                                                        <svg viewBox="0 0 244.43135999999998 17.538726545565435" height="17.538726545565435" width="244.43135999999998">
                                                                            <g transform="matrix(1,0,0,1,0,0)">
                                                                                <svg width="244.43135999999998" viewBox="3.05 -36.75 649.45 46.6" height="17.538726545565435" data-palette-color="#755bb4">
                                                                                    <path d="M4.7 0L3.05 0 3.05-34.4Q3.05-34.4 3.15-34.7 3.25-35 3.7-35L3.7-35 15.65-35Q15.65-34.1 15.63-33.65 15.6-33.2 15.5-33.08 15.4-32.95 15.15-32.95L15.15-32.95 5.3-32.95 5.3-0.6Q5.3-0.6 5.25-0.3 5.2 0 4.7 0L4.7 0ZM14.05-18.1L3.75-18.1 3.75-20.25 14.55-20.25Q14.55-18.9 14.5-18.5 14.45-18.1 14.05-18.1L14.05-18.1ZM46.18 0.5L46.18 0.5Q43.23 0.5 41.66-0.43 40.08-1.35 39.43-3.35 38.78-5.35 38.78-8.7L38.78-8.7 38.78-24.4Q38.78-24.7 38.88-24.83 38.98-24.95 39.46-24.98 39.93-25 41.08-25L41.08-25 41.08-8.35Q41.08-5.75 41.53-4.28 41.98-2.8 43.13-2.18 44.28-1.55 46.43-1.55L46.43-1.55Q47.33-1.55 48.81-1.83 50.28-2.1 51.48-2.8L51.48-2.8 51.48-24.4Q51.48-24.7 51.63-24.83 51.78-24.95 52.26-24.98 52.73-25 53.73-25L53.73-25 53.73-1.2Q52.08-0.3 50.03 0.1 47.98 0.5 46.18 0.5ZM79.02 0L79.02 0 79.02-35.6Q79.02-36.2 79.22-36.43 79.42-36.65 79.92-36.7 80.42-36.75 81.27-36.75L81.27-36.75 81.27-0.6Q81.27-0.3 81.17-0.18 81.07-0.05 80.62-0.03 80.17 0 79.02 0ZM106.5 0L106.5 0 106.5-35.6Q106.5-36.2 106.7-36.43 106.9-36.65 107.4-36.7 107.9-36.75 108.75-36.75L108.75-36.75 108.75-0.6Q108.75-0.3 108.65-0.18 108.55-0.05 108.1-0.03 107.65 0 106.5 0ZM139.33 0.5L139.33 0.5Q135.83 0.5 134.28-0.43 132.73-1.35 132.73-2.05L132.73-2.05Q132.73-2.45 132.91-2.88 133.08-3.3 133.48-3.65L133.48-3.65Q134.28-2.9 135.61-2.35 136.93-1.8 139.23-1.8L139.23-1.8Q142.63-1.8 144.13-3.63 145.63-5.45 145.63-8.3L145.63-8.3Q145.63-10.55 144.83-12.33 144.03-14.1 141.93-16.25L141.93-16.25 136.38-21.85Q134.68-23.7 133.78-25.33 132.88-26.95 132.88-28.9L132.88-28.9Q132.88-31.8 135.06-33.65 137.23-35.5 141.13-35.5L141.13-35.5Q144.43-35.5 145.91-34.8 147.38-34.1 147.38-33.4L147.38-33.4Q147.38-33.05 147.21-32.68 147.03-32.3 146.73-32L146.73-32Q146.13-32.5 144.71-32.98 143.28-33.45 141.18-33.45L141.18-33.45Q138.53-33.45 136.88-32.2 135.23-30.95 135.23-28.95L135.23-28.95Q135.23-27.35 136.06-26.05 136.88-24.75 138.13-23.4L138.13-23.4 144.28-17.25Q146.43-15 147.21-13.03 147.98-11.05 147.98-8.55L147.98-8.55Q147.98-5.95 147.11-3.9 146.23-1.85 144.33-0.68 142.43 0.5 139.33 0.5ZM178.37 0.5L178.37 0.5Q176.32 0.5 175.42-0.53 174.52-1.55 174.29-3.33 174.07-5.1 174.07-7.4L174.07-7.4 174.07-22.95 170.22-22.95Q170.22-23.9 170.24-24.33 170.27-24.75 170.39-24.88 170.52-25 170.77-25L170.77-25 174.07-25 174.07-33Q174.07-33.55 174.24-33.75 174.42-33.95 174.89-33.98 175.37-34 176.32-34L176.32-34 176.32-25 182.67-25Q182.67-24.1 182.67-23.65 182.67-23.2 182.54-23.08 182.42-22.95 182.17-22.95L182.17-22.95 176.32-22.95 176.32-7.3Q176.32-5.7 176.44-4.38 176.57-3.05 177.09-2.3 177.62-1.55 178.82-1.55L178.82-1.55Q179.92-1.55 180.62-1.78 181.32-2 182.12-2.4L182.12-2.4Q182.22-2.1 182.27-1.83 182.32-1.55 182.32-1.15L182.32-1.15Q182.32-0.6 181.74-0.23 181.17 0.15 180.27 0.33 179.37 0.5 178.37 0.5ZM211.85 0.5L211.85 0.5Q210.5 0.55 209.22 0.33 207.95 0.1 206.92-0.63 205.9-1.35 205.27-2.83 204.65-4.3 204.65-6.9L204.65-6.9Q204.65-9.55 205.3-11.15 205.95-12.75 207.05-13.6 208.15-14.45 209.55-14.73 210.95-15 212.4-15L212.4-15Q213.5-15 214.62-14.88 215.75-14.75 216.6-14.45L216.6-14.45Q216.6-14.45 216.6-15.3 216.6-16.15 216.6-17.23 216.6-18.3 216.6-19L216.6-19Q216.6-20.8 216.05-21.73 215.5-22.65 214.55-22.98 213.6-23.3 212.35-23.3L212.35-23.3Q209.85-23.3 207.87-22.9 205.9-22.5 204.95-22.05L204.95-22.05Q204.8-22.4 204.72-22.73 204.65-23.05 204.65-23.35L204.65-23.35Q204.65-23.65 204.72-23.9 204.8-24.15 205-24.25L205-24.25Q205.75-24.7 207.95-25.1 210.15-25.5 212.85-25.5L212.85-25.5Q215.8-25.5 217.32-24.18 218.85-22.85 218.85-19.45L218.85-19.45 218.85-16.35Q218.85-13.5 218.82-10.8 218.8-8.1 218.75-5.7 218.7-3.3 218.55-1.35L218.55-1.35Q217.8-0.9 216.17-0.2 214.55 0.5 211.85 0.5ZM212.25-1.5L212.25-1.5Q213.6-1.5 214.77-1.93 215.95-2.35 216.35-2.75L216.35-2.75Q216.45-3.9 216.5-5.58 216.55-7.25 216.57-9.13 216.6-11 216.6-12.7L216.6-12.7Q215.85-12.95 214.82-13.08 213.8-13.2 213-13.2L213-13.2Q211.85-13.2 210.77-13 209.7-12.8 208.85-12.18 208-11.55 207.47-10.3 206.95-9.05 206.95-6.95L206.95-6.95Q206.95-5.05 207.37-3.95 207.8-2.85 208.55-2.33 209.3-1.8 210.25-1.65 211.2-1.5 212.25-1.5ZM250.03 0.5L250.03 0.5Q248.38 0.5 247.03 0.05 245.68-0.4 244.66-1.68 243.63-2.95 243.08-5.43 242.53-7.9 242.53-11.95L242.53-11.95Q242.53-16.45 243.36-19.15 244.18-21.85 245.53-23.23 246.88-24.6 248.48-25.05 250.08-25.5 251.58-25.5L251.58-25.5Q253.23-25.5 254.51-24.93 255.78-24.35 255.78-23.6L255.78-23.6Q255.78-23.35 255.68-22.95 255.58-22.55 255.43-22.2L255.43-22.2Q254.83-22.65 253.81-23.03 252.78-23.4 251.43-23.4L251.43-23.4Q250.38-23.4 249.21-23.05 248.03-22.7 247.03-21.53 246.03-20.35 245.43-18.03 244.83-15.7 244.83-11.8L244.83-11.8Q244.83-8.55 245.26-6.55 245.68-4.55 246.43-3.48 247.18-2.4 248.26-1.98 249.33-1.55 250.63-1.55L250.63-1.55Q252.28-1.55 253.56-2.1 254.83-2.65 255.43-3.25L255.43-3.25Q255.63-2.85 255.71-2.53 255.78-2.2 255.78-1.85L255.78-1.85Q255.78-1.1 254.18-0.3 252.58 0.5 250.03 0.5ZM279.37 0L279.37 0 279.37-35.6Q279.37-36.2 279.57-36.43 279.77-36.65 280.27-36.7 280.77-36.75 281.62-36.75L281.62-36.75 281.62-22.15Q283.22-23.8 285.32-24.65 287.42-25.5 289.02-25.5L289.02-25.5Q290.62-25.5 291.57-24.98 292.52-24.45 292.97-23.48 293.42-22.5 293.42-21.1L293.42-21.1Q293.42-19.35 292.74-18 292.07-16.65 291.09-15.65 290.12-14.65 289.22-14.05 288.32-13.45 287.77-13.15L287.77-13.15Q288.82-13.15 290.19-12.43 291.57-11.7 292.72-10.13 293.87-8.55 294.32-5.9L294.32-5.9Q294.47-4.8 294.49-3.5 294.52-2.2 294.32-0.7L294.32-0.7Q294.27-0.35 294.14-0.2 294.02-0.05 293.52-0.03 293.02 0 291.77 0L291.77 0Q292.12-2.45 291.99-4.28 291.87-6.1 291.42-7.4L291.42-7.4Q290.92-8.95 290.07-9.88 289.22-10.8 288.29-11.23 287.37-11.65 286.44-11.7 285.52-11.75 284.87-11.6L284.87-11.6Q284.37-11.45 283.59-11.18 282.82-10.9 282.22-10.65 281.62-10.4 281.62-10.4L281.62-10.4 281.62-0.6Q281.62-0.3 281.57-0.18 281.52-0.05 281.04-0.03 280.57 0 279.37 0ZM281.62-19.85L281.62-12.25Q284.22-13.15 286.34-14.3 288.47-15.45 289.74-17.03 291.02-18.6 291.02-20.6L291.02-20.6Q291.02-23.4 288.17-23.4L288.17-23.4Q286.67-23.4 284.97-22.58 283.27-21.75 281.62-19.85L281.62-19.85ZM352.08 0L346.08 0 346.08-34.15Q346.08-34.55 346.33-34.77 346.58-35 347.33-35L347.33-35 352.33-35Q354.73-35 356.56-34.15 358.38-33.3 359.61-31.45 360.83-29.6 361.46-26.63 362.08-23.65 362.08-19.35L362.08-19.35Q362.08-13.3 361.31-9.5 360.53-5.7 359.13-3.63 357.73-1.55 355.93-0.78 354.13 0 352.08 0L352.08 0ZM348.33-32.85L348.33-2.2 352.08-2.2Q353.53-2.2 354.88-2.78 356.23-3.35 357.28-5.15 358.33-6.95 358.98-10.38 359.63-13.8 359.63-19.5L359.63-19.5Q359.63-23.1 359.18-25.65 358.73-28.2 357.83-29.8 356.93-31.4 355.53-32.13 354.13-32.85 352.23-32.85L352.23-32.85 348.33-32.85ZM393.42 0.5L393.42 0.5Q391.67 0.5 390.14 0.1 388.62-0.3 387.49-1.5 386.37-2.7 385.77-5.03 385.17-7.35 385.17-11.1L385.17-11.1Q385.17-15.95 385.97-18.85 386.77-21.75 388.09-23.18 389.42-24.6 390.99-25.05 392.57-25.5 394.12-25.5L394.12-25.5Q397.42-25.5 398.89-23.38 400.37-21.25 400.37-17.6L400.37-17.6Q400.37-16.1 400.29-14.58 400.22-13.05 399.97-11.8L399.97-11.8Q397.87-11.4 395.57-11.2 393.27-11 391.24-10.95 389.22-10.9 387.94-10.93 386.67-10.95 386.67-10.95L386.67-10.95 386.67-12.9Q386.67-12.9 387.87-12.88 389.07-12.85 390.84-12.9 392.62-12.95 394.54-13.1 396.47-13.25 397.97-13.6L397.97-13.6Q398.07-14.55 398.12-15.4 398.17-16.25 398.17-17.05L398.17-17.05Q398.12-20.15 397.27-21.8 396.42-23.45 393.97-23.45L393.97-23.45Q392.87-23.45 391.74-23.08 390.62-22.7 389.62-21.48 388.62-20.25 388.04-17.78 387.47-15.3 387.47-11.05L387.47-11.05Q387.47-7.95 387.89-6.1 388.32-4.25 389.17-3.3 390.02-2.35 391.17-2.02 392.32-1.7 393.72-1.7L393.72-1.7Q395.47-1.7 397.09-2.15 398.72-2.6 399.87-3.45L399.87-3.45Q400.02-3.05 400.09-2.6 400.17-2.15 400.17-1.85L400.17-1.85Q400.17-1.35 399.22-0.8 398.27-0.25 396.74 0.13 395.22 0.5 393.42 0.5ZM429.75 0.4L429.75 0.4Q429.45 0.4 429.2-0.28 428.95-0.95 428.65-2.05L428.65-2.05 422.55-24.25Q422.5-24.6 422.6-24.78 422.7-24.95 423.2-24.98 423.7-25 424.8-25L424.8-25 427.2-16.05Q427.8-13.75 428.37-11.38 428.95-9 429.4-7.03 429.85-5.05 430.1-3.83 430.35-2.6 430.35-2.6L430.35-2.6 430.4-2.6Q430.4-2.6 430.62-3.83 430.85-5.05 431.25-7.03 431.65-9 432.2-11.38 432.75-13.75 433.35-16.15L433.35-16.15 435.45-24.35Q435.55-24.7 435.67-24.83 435.8-24.95 436.27-24.98 436.75-25 437.85-25L437.85-25 431.2 0.35Q431 0.4 430.47 0.4 429.95 0.4 429.75 0.4ZM467.58 0.5L467.58 0.5Q465.83 0.5 464.31 0.1 462.78-0.3 461.66-1.5 460.53-2.7 459.93-5.03 459.33-7.35 459.33-11.1L459.33-11.1Q459.33-15.95 460.13-18.85 460.93-21.75 462.26-23.18 463.58-24.6 465.16-25.05 466.73-25.5 468.28-25.5L468.28-25.5Q471.58-25.5 473.06-23.38 474.53-21.25 474.53-17.6L474.53-17.6Q474.53-16.1 474.46-14.58 474.38-13.05 474.13-11.8L474.13-11.8Q472.03-11.4 469.73-11.2 467.43-11 465.41-10.95 463.38-10.9 462.11-10.93 460.83-10.95 460.83-10.95L460.83-10.95 460.83-12.9Q460.83-12.9 462.03-12.88 463.23-12.85 465.01-12.9 466.78-12.95 468.71-13.1 470.63-13.25 472.13-13.6L472.13-13.6Q472.23-14.55 472.28-15.4 472.33-16.25 472.33-17.05L472.33-17.05Q472.28-20.15 471.43-21.8 470.58-23.45 468.13-23.45L468.13-23.45Q467.03-23.45 465.91-23.08 464.78-22.7 463.78-21.48 462.78-20.25 462.21-17.78 461.63-15.3 461.63-11.05L461.63-11.05Q461.63-7.95 462.06-6.1 462.48-4.25 463.33-3.3 464.18-2.35 465.33-2.02 466.48-1.7 467.88-1.7L467.88-1.7Q469.63-1.7 471.26-2.15 472.88-2.6 474.03-3.45L474.03-3.45Q474.18-3.05 474.26-2.6 474.33-2.15 474.33-1.85L474.33-1.85Q474.33-1.35 473.38-0.8 472.43-0.25 470.91 0.13 469.38 0.5 467.58 0.5ZM498.37 0L498.37 0 498.37-35.6Q498.37-36.2 498.57-36.43 498.77-36.65 499.27-36.7 499.77-36.75 500.62-36.75L500.62-36.75 500.62-0.6Q500.62-0.3 500.52-0.18 500.42-0.05 499.97-0.03 499.52 0 498.37 0ZM532.35 0.5L532.35 0.5Q530.6 0.5 529.15 0.05 527.7-0.4 526.67-1.73 525.65-3.05 525.1-5.63 524.55-8.2 524.55-12.45L524.55-12.45Q524.55-19.4 526.8-22.45 529.05-25.5 532.9-25.5L532.9-25.5Q535.5-25.5 537.2-24.38 538.9-23.25 539.75-20.43 540.6-17.6 540.6-12.5L540.6-12.5Q540.6-5.8 538.47-2.65 536.35 0.5 532.35 0.5ZM532.4-1.5L532.4-1.5Q534.2-1.5 535.5-2.65 536.8-3.8 537.52-6.23 538.25-8.65 538.25-12.6L538.25-12.6Q538.25-17.05 537.6-19.4 536.95-21.75 535.75-22.63 534.55-23.5 532.8-23.5L532.8-23.5Q531.05-23.5 529.72-22.45 528.4-21.4 527.67-18.95 526.95-16.5 526.95-12.2L526.95-12.2Q526.95-8.9 527.32-6.8 527.7-4.7 528.37-3.55 529.05-2.4 530.1-1.95 531.15-1.5 532.4-1.5ZM565.58 9.85L565.58 9.85Q565.08 9.85 564.81 9.63 564.53 9.4 564.53 8.9L564.53 8.9 564.53-23.45Q566.13-24.5 567.91-25 569.68-25.5 571.73-25.5L571.73-25.5Q574.28-25.5 576.16-24.55 578.03-23.6 579.01-21.28 579.98-18.95 579.98-14.85L579.98-14.85Q579.98-10.8 579.41-8.05 578.83-5.3 577.91-3.6 576.98-1.9 575.83-1.03 574.68-0.15 573.56 0.18 572.43 0.5 571.48 0.5L571.48 0.5Q569.83 0.5 568.58-0.13 567.33-0.75 566.78-1.45L566.78-1.45 566.78 9.65Q566.48 9.75 566.18 9.8 565.88 9.85 565.58 9.85ZM570.98-1.6L570.98-1.6Q571.78-1.6 572.91-2 574.03-2.4 575.11-3.65 576.18-4.9 576.88-7.43 577.58-9.95 577.58-14.3L577.58-14.3Q577.58-17.95 576.91-19.93 576.23-21.9 574.91-22.68 573.58-23.45 571.58-23.45L571.58-23.45Q568.88-23.45 566.78-22.1L566.78-22.1 566.78-4.15Q567.53-2.85 568.68-2.23 569.83-1.6 570.98-1.6ZM611.52 0.5L611.52 0.5Q609.77 0.5 608.24 0.1 606.72-0.3 605.59-1.5 604.47-2.7 603.87-5.03 603.27-7.35 603.27-11.1L603.27-11.1Q603.27-15.95 604.07-18.85 604.87-21.75 606.19-23.18 607.52-24.6 609.09-25.05 610.67-25.5 612.22-25.5L612.22-25.5Q615.52-25.5 616.99-23.38 618.47-21.25 618.47-17.6L618.47-17.6Q618.47-16.1 618.39-14.58 618.32-13.05 618.07-11.8L618.07-11.8Q615.97-11.4 613.67-11.2 611.37-11 609.34-10.95 607.32-10.9 606.04-10.93 604.77-10.95 604.77-10.95L604.77-10.95 604.77-12.9Q604.77-12.9 605.97-12.88 607.17-12.85 608.94-12.9 610.72-12.95 612.64-13.1 614.57-13.25 616.07-13.6L616.07-13.6Q616.17-14.55 616.22-15.4 616.27-16.25 616.27-17.05L616.27-17.05Q616.22-20.15 615.37-21.8 614.52-23.45 612.07-23.45L612.07-23.45Q610.97-23.45 609.84-23.08 608.72-22.7 607.72-21.48 606.72-20.25 606.14-17.78 605.57-15.3 605.57-11.05L605.57-11.05Q605.57-7.95 605.99-6.1 606.42-4.25 607.27-3.3 608.12-2.35 609.27-2.02 610.42-1.7 611.82-1.7L611.82-1.7Q613.57-1.7 615.19-2.15 616.82-2.6 617.97-3.45L617.97-3.45Q618.12-3.05 618.19-2.6 618.27-2.15 618.27-1.85L618.27-1.85Q618.27-1.35 617.32-0.8 616.37-0.25 614.84 0.13 613.32 0.5 611.52 0.5ZM642.2 0L642.2 0 642.2-23.3Q643.85-24.45 645.55-24.98 647.25-25.5 648.85-25.5L648.85-25.5Q650.65-25.5 651.57-25.05 652.5-24.6 652.5-23.9L652.5-23.9Q652.5-23.6 652.4-23.2 652.3-22.8 652.15-22.5L652.15-22.5Q651.6-22.8 650.85-23.05 650.1-23.3 649.15-23.3L649.15-23.3Q647.85-23.3 646.67-22.93 645.5-22.55 644.5-21.8L644.5-21.8 644.45-0.6Q644.45-0.3 644.35-0.18 644.25-0.05 643.77-0.03 643.3 0 642.2 0Z" opacity="1" transform="matrix(1,0,0,1,0,0)" fill="#755bb4" class="undefined-text-1" data-fill-palette-color="secondary" id="text-1">
                                                                                    </path>
                                                                                </svg>
                                                                            </g>
                                                                        </svg>
                                                                    </g>
                                                                </svg>
                                                            </g>
                                                        </svg>
                                                    </g>
                                                </svg>
                                            </g>
                                        </svg>
                                    </g>
                                </svg>
                            </g>
                            <g>
                                <path d="M0 123.6c0-68.262 55.338-123.6 123.6-123.6 58.039 0 106.734 40.003 120.019 93.941l-1.319 0c-13.256-53.224-61.372-92.661-118.7-92.661-67.556 0-122.32 54.765-122.32 122.32 0 67.556 54.765 122.32 122.32 122.32 57.328 0 105.444-39.437 118.7-92.661h1.319c-13.284 53.938-61.98 93.941-120.019 93.941-68.262 0-123.6-55.338-123.6-123.6z" fill="#755bb4" stroke="transparent" data-fill-palette-color="tertiary">
                                </path>
                            </g>
                        </svg>
                    </g>
                    <defs>
                    </defs>
                </svg>
                <rect width="395.52" height="247.2" fill="none" stroke="none" visibility="hidden">
                </rect>
            </g>
        </svg>
    </g>
</svg>